<svg xmlns="http://www.w3.org/2000/svg" width="133" height="35" viewBox="0 0 133 35" fill="none"><path d="M18.2896 13.5436C17.5782 12.7242 16.7303 12.0805 15.7474 11.6104C14.7637 11.141 13.6755 10.9052 12.4826 10.9052C11.206 10.9052 10.0387 11.1953 8.98306 11.7739C7.92598 12.3532 7.07326 13.2435 6.42489 14.4448C6.4138 14.4651 6.4041 14.4875 6.39371 14.5084V5.07227H3.38043V28.9965H5.76612V25.4063C5.8347 25.5632 5.90813 25.7173 5.98571 25.867C6.61399 27.0799 7.46603 28.0035 8.54388 28.6363C9.62104 29.2699 10.8513 29.5867 12.2319 29.5867C13.4663 29.5867 14.5912 29.3458 15.606 28.8656C16.6209 28.3853 17.4944 27.7243 18.2266 26.8832C18.9587 26.0428 19.5185 25.0758 19.9057 23.983C20.2922 22.8909 20.4869 21.7214 20.4869 20.4759V19.8858C20.4869 18.6403 20.2984 17.4766 19.9216 16.3954C19.5448 15.3141 19.0003 14.3631 18.2889 13.5444L18.2896 13.5436ZM16.783 23.638C16.3223 24.6324 15.6739 25.4135 14.8364 25.9813C13.9997 26.5498 13.016 26.8333 11.8862 26.8333C10.9026 26.8333 9.98194 26.604 9.12437 26.1447C8.2661 25.6862 7.57547 25.0302 7.05317 24.1782C6.52948 23.3262 6.26833 22.3 6.26833 21.0979V19.5907C6.26833 18.3453 6.52464 17.2799 7.03793 16.3954C7.55054 15.5109 8.23562 14.8332 9.09389 14.3631C9.95146 13.8937 10.8832 13.6586 11.8876 13.6586C12.9966 13.6586 13.9699 13.9262 14.8067 14.4614C15.6434 14.9974 16.2981 15.756 16.7684 16.7389C17.2394 17.7218 17.475 18.8689 17.475 20.1801C17.475 21.4914 17.245 22.6435 16.7843 23.6372L16.783 23.638Z" fill="#DEDEDE"></path><path d="M28.2556 13.0848C27.4735 13.949 26.9789 15.1771 26.7642 16.7603V11.4951H24.3785V28.9954H27.3918V19.5245C27.3918 17.7772 27.8413 16.4384 28.7412 15.5098C29.641 14.5811 30.928 14.1168 32.6023 14.1168H33.6698V11.2983H33.1045C30.9488 11.2983 29.332 11.8936 28.2549 13.0848H28.2556Z" fill="#DEDEDE"></path><path d="M67.3763 11.9377C66.288 11.5117 64.8853 11.2983 63.1701 11.2983C62.6679 11.2983 62.1442 11.3041 61.6012 11.315C61.0567 11.3258 60.5282 11.3475 60.0155 11.3801C59.5029 11.4133 59.016 11.4509 58.556 11.4951V14.2477C59.016 14.2043 59.5604 14.1711 60.188 14.1494C60.8156 14.1277 61.4751 14.106 62.1657 14.0836C62.8563 14.0619 63.5255 14.051 64.1746 14.051C65.3252 14.051 66.1994 14.3569 66.7958 14.9688C67.3922 15.5807 67.6901 16.4876 67.6901 17.6889V18.1149H63.4528C62.0085 18.1149 60.7741 18.3276 59.7489 18.7535C58.723 19.1795 57.9437 19.808 57.4103 20.6383C56.8769 21.4686 56.6095 22.5065 56.6095 23.7519C56.6095 24.9973 56.8554 25.9802 57.3472 26.8322C57.8391 27.6842 58.5401 28.3344 59.4503 28.7821C60.3612 29.2298 61.4439 29.454 62.6991 29.454C63.8712 29.454 64.87 29.2355 65.6971 28.7987C66.5235 28.3619 67.1726 27.7225 67.6437 26.8814C67.8695 26.4785 68.0517 26.0272 68.193 25.5318V28.9954H70.5787V17.9182C70.5787 16.2793 70.3168 14.9797 69.7938 14.0185C69.2708 13.0573 68.4652 12.3637 67.377 11.937L67.3763 11.9377ZM66.9835 25.1781C66.554 25.8233 66.0151 26.2818 65.3667 26.5545C64.7177 26.8279 64.0374 26.9638 63.3267 26.9638C62.1131 26.9638 61.1814 26.6687 60.533 26.0793C59.8839 25.4891 59.5597 24.7138 59.5597 23.7526C59.5597 22.7914 59.8839 22.0053 60.533 21.3927C61.1814 20.7815 62.1131 20.4749 63.3267 20.4749H67.6894V22.5072C67.6471 23.6434 67.4116 24.5337 66.9828 25.1781H66.9835Z" fill="#DEDEDE"></path><path d="M88.3127 14.1403C87.6622 13.067 86.8476 12.2649 85.8647 11.7413C84.818 11.1844 83.6563 10.9052 82.3803 10.9052C81.1044 10.9052 80.0625 11.1403 79.0685 11.6104C78.0745 12.0805 77.2169 12.73 76.4951 13.5603C75.7733 14.3906 75.2129 15.3525 74.816 16.4446C74.4184 17.5374 74.2195 18.7062 74.2195 19.9516V20.5418C74.2195 21.8089 74.4232 22.9885 74.8312 24.0813C75.2392 25.1741 75.8149 26.1353 76.5574 26.9649C77.3 27.7959 78.1742 28.4396 79.1786 28.8989C80.1831 29.3574 81.2817 29.5867 82.4746 29.5867C83.6674 29.5867 84.8651 29.3082 85.9429 28.7513C87.0208 28.1944 87.9151 27.2983 88.6272 26.0637C88.7408 25.8663 88.8433 25.6558 88.941 25.4396V28.9965H91.3267V5.07227H88.3127V14.1403ZM88.4381 20.8361C88.4381 22.0598 88.1866 23.1252 87.6851 24.0314C87.1829 24.9384 86.513 25.632 85.6762 26.1129C84.8388 26.5939 83.9078 26.834 82.8826 26.834C81.7943 26.834 80.8211 26.5664 79.9635 26.0312C79.1052 25.496 78.4354 24.7315 77.9539 23.7371C77.4725 22.7433 77.2321 21.5796 77.2321 20.2467C77.2321 18.9137 77.4677 17.7558 77.9387 16.7729C78.4097 15.79 79.0685 15.0256 79.9164 14.4788C80.7636 13.9327 81.7424 13.6594 82.8514 13.6594C83.8558 13.6594 84.782 13.8836 85.6291 14.3312C86.4763 14.7797 87.1566 15.4241 87.6699 16.2645C88.1818 17.1063 88.4388 18.1276 88.4388 19.3289V20.8368L88.4381 20.8361Z" fill="#DEDEDE"></path><path d="M107.915 12.1348C106.732 11.3154 105.231 10.9053 103.41 10.9053C102.008 10.9053 100.79 11.1627 99.7535 11.6755C98.7179 12.189 97.8644 12.8776 97.1953 13.7404C96.5254 14.6032 96.0288 15.5702 95.7046 16.6406C95.3797 17.7117 95.2183 18.8147 95.2183 19.9509V20.5411C95.2183 21.6556 95.3804 22.7484 95.7046 23.8181C96.0288 24.8892 96.5254 25.8555 97.1953 26.7183C97.8651 27.5819 98.7331 28.2747 99.8006 28.7998C100.868 29.3242 102.134 29.586 103.599 29.586C104.917 29.586 106.099 29.3567 107.145 28.8982C108.192 28.4396 109.06 27.7728 109.751 26.8991C110.441 26.0254 110.901 24.9876 111.132 23.7855H108.307C108.139 24.5941 107.643 25.3044 106.816 25.9155C105.989 26.5274 104.917 26.8333 103.599 26.8333C102.28 26.8333 101.307 26.544 100.491 25.9647C99.6752 25.3861 99.0732 24.5992 98.686 23.6055C98.3604 22.7716 98.1741 21.8472 98.1221 20.8362H111.415V19.4265C111.415 17.9634 111.126 16.5864 110.551 15.2975C109.976 14.0087 109.097 12.9542 107.915 12.1348ZM100.444 14.5107C101.229 13.9429 102.217 13.6587 103.41 13.6587C104.603 13.6587 105.513 13.9104 106.267 14.4123C107.02 14.9149 107.585 15.6194 107.962 16.5263C108.203 17.1064 108.366 17.7573 108.453 18.4762H98.244C98.3403 17.8897 98.4879 17.3429 98.6867 16.8381C99.0739 15.8552 99.6599 15.0798 100.445 14.5114L100.444 14.5107Z" fill="#DEDEDE"></path><path d="M128.098 13.0356C127.082 11.6592 125.518 10.9707 123.405 10.9707H123.279C121.877 10.9707 120.716 11.2824 119.796 11.9051C118.874 12.5278 118.189 13.4348 117.74 14.6253C117.626 14.9269 117.526 15.2451 117.442 15.5807V11.4951H115.056V28.9954H118.069V18.5409C118.069 17.1212 118.477 15.985 119.293 15.133C120.109 14.281 121.176 13.855 122.495 13.855C123.814 13.855 124.775 14.2651 125.508 15.0838C126.241 15.9032 126.607 16.9903 126.607 18.3449V28.9961H129.62V19.0009C129.62 16.4008 129.113 14.4126 128.098 13.0363L128.098 13.0356Z" fill="#DEDEDE"></path><path d="M38.295 14.0186C38.7494 14.5603 39.1858 15.0803 39.6222 15.6003C39.6098 15.6155 39.5966 15.6307 39.5841 15.6459C39.0217 15.2828 38.4585 14.919 37.8773 14.5437C37.4541 15.0499 37.1278 15.6105 36.8514 16.2281C37.479 16.6382 38.0997 17.0439 38.7203 17.4489C38.7134 17.4656 38.7072 17.4822 38.7002 17.4988C38.5943 17.4714 38.4883 17.4468 38.383 17.4157C37.8323 17.2551 37.2809 17.0967 36.7323 16.9297C36.6117 16.8928 36.5445 16.9087 36.5071 17.0446C36.3748 17.5285 36.2349 18.0102 36.1019 18.494C36.0853 18.5555 36.0887 18.6235 36.0818 18.7038C36.8556 18.9352 37.6203 19.1645 38.3844 19.393C38.3823 19.4118 38.3795 19.4306 38.3774 19.4494C37.5815 19.4494 36.7856 19.4494 35.9446 19.4494C35.9343 19.8978 35.9052 20.3202 35.919 20.7412C35.9349 21.2351 35.9509 21.2337 36.4254 21.2351C37.0675 21.238 37.7104 21.2416 38.3525 21.246C38.4197 21.246 38.4869 21.2525 38.5541 21.2561C38.5568 21.2742 38.5596 21.293 38.5624 21.3111C37.7318 21.549 36.9006 21.787 36.0555 22.0293C36.1241 22.5753 36.2529 23.0917 36.4427 23.5915C36.4559 23.6262 36.5598 23.6522 36.6103 23.6385C37.4028 23.4208 38.1932 23.1958 38.9842 22.9724C39.0549 22.9521 39.1269 22.9355 39.1983 22.9167C39.2052 22.9333 39.2115 22.9507 39.2184 22.9673C38.4121 23.4598 37.6058 23.9524 36.7537 24.4724C37.017 24.9454 37.2753 25.4097 37.5434 25.8914C38.464 25.3258 39.3465 24.7841 40.2284 24.2424C40.2401 24.259 40.2519 24.2749 40.2637 24.2916C39.5433 25.0531 38.8228 25.8154 38.0519 26.6298C38.4072 27.0059 38.7536 27.3719 39.1131 27.7523C39.9624 26.841 40.7527 25.9926 41.5431 25.1443C41.559 25.1558 41.5743 25.1674 41.5902 25.179C41.0257 26.2009 40.4604 27.2229 39.8716 28.2882C40.2928 28.5421 40.7063 28.7916 41.1372 29.0512C41.7558 27.8868 42.355 26.7593 42.9542 25.6317C42.9673 25.6361 42.9805 25.6404 42.9936 25.6448C42.9895 25.6838 42.9902 25.7236 42.9805 25.7612C42.6792 26.9126 42.3799 28.0655 42.0716 29.2147C42.0315 29.3637 42.0523 29.4338 42.197 29.4729C42.5822 29.577 42.9659 29.6891 43.3753 29.8049C43.7071 28.4213 44.0279 27.0826 44.3486 25.7431C44.3673 25.7446 44.3853 25.7467 44.404 25.7482C44.404 25.8162 44.404 25.8841 44.404 25.9521C44.3936 27.1939 44.3874 28.4358 44.3687 29.6768C44.3659 29.8707 44.4227 29.9322 44.6014 29.9264C44.9055 29.9155 45.211 29.9162 45.5151 29.9228C45.6703 29.9264 45.7188 29.8685 45.7181 29.7029C45.7125 28.3548 45.716 27.0066 45.7167 25.6585C45.7167 25.6014 45.7167 25.5435 45.7167 25.4864C45.7361 25.4827 45.7555 25.4791 45.7749 25.4755C46.1088 26.8952 46.4426 28.315 46.7862 29.7759C47.2039 29.6595 47.6043 29.5474 48.0276 29.4295C47.6216 27.8991 47.2247 26.4034 46.8278 24.9085C46.8458 24.9005 46.8638 24.8919 46.8818 24.8839C47.5967 26.2378 48.3123 27.591 49.0465 28.9811C49.4005 28.7699 49.7385 28.5674 50.0946 28.3548C49.2924 26.9018 48.5069 25.4806 47.7221 24.0594C47.7373 24.0464 47.7532 24.0334 47.7685 24.0203C48.8498 25.2036 49.9311 26.3875 51.0485 27.6105C51.311 27.3277 51.5611 27.0587 51.8284 26.7701C50.6418 25.5211 49.4739 24.2916 48.306 23.062C48.3185 23.0461 48.3303 23.0295 48.3427 23.0136C49.7579 23.9061 51.1724 24.7993 52.6181 25.7113C52.8045 25.3815 52.9832 25.0647 53.1751 24.7248C51.6289 23.8041 50.1105 22.9 48.5914 21.9953C48.5983 21.975 48.606 21.954 48.6129 21.9338C50.2941 22.4184 51.976 22.9029 53.7008 23.3998C53.7784 23.0772 53.8581 22.767 53.9204 22.4531C53.9267 22.422 53.8311 22.3439 53.7729 22.328C52.9319 22.0929 52.0903 21.8644 51.248 21.6344C50.3814 21.3986 49.5141 21.1628 48.6475 20.9285C48.606 20.9169 48.563 20.9118 48.5034 20.9003C48.2998 22.1016 47.7131 23.0223 46.6865 23.6059C45.9508 24.0247 45.1625 24.1353 44.3396 23.9668C42.7131 23.6334 41.5424 22.1009 41.5528 20.3463C41.5632 18.5678 42.9597 16.777 45.0226 16.7423C45.0226 14.8084 45.0226 12.8737 45.0226 10.9043C44.7365 10.9173 44.4511 10.913 44.1706 10.9477C43.793 10.9947 43.419 11.0757 43.0421 11.1343C42.9036 11.156 42.8676 11.2211 42.8856 11.3628C42.9465 11.8431 42.9978 12.3247 43.0518 12.8057C43.0567 12.8484 43.056 12.8918 43.022 12.9518C42.9936 12.8997 42.9625 12.8491 42.9382 12.7949C42.7457 12.3616 42.5572 11.9262 42.3584 11.4966C42.3335 11.4431 42.2434 11.3722 42.2033 11.3838C41.5452 11.5769 40.9315 11.8756 40.3392 12.2698C40.5948 12.8628 40.8462 13.4458 41.0977 14.028C41.0825 14.0403 41.0665 14.0533 41.0513 14.0656C40.6419 13.5897 40.2325 13.1138 39.8155 12.6285C39.2426 13.0198 38.7466 13.4783 38.2971 14.0171L38.295 14.0186Z" fill="#DEDEDE"></path><path d="M48.5159 19.9341C48.5159 20.261 48.5159 20.538 48.5159 20.8374C48.6281 20.8432 48.7466 20.854 48.8651 20.8555C50.5497 20.8729 52.2337 20.8866 53.9184 20.9097C54.0846 20.9119 54.1483 20.8613 54.1442 20.6899C54.138 20.4338 54.1428 20.1771 54.1428 19.9348C52.2427 19.9348 50.3835 19.9348 48.5166 19.9348L48.5159 19.9341Z" fill="#DEDEDE"></path><path d="M48.2866 19.0255C48.3642 19.3199 48.4328 19.5802 48.5076 19.8623C48.7812 19.7871 49.0493 19.714 49.3174 19.6403C50.7963 19.2324 52.2738 18.8223 53.7542 18.4194C53.8892 18.3825 53.9343 18.3377 53.8913 18.1931C53.82 17.9537 53.7625 17.7099 53.6918 17.438C51.8776 17.9703 50.0856 18.4968 48.2866 19.0248V19.0255Z" fill="#DEDEDE"></path><path d="M53.094 15.9684C52.934 15.6914 52.7906 15.4433 52.6334 15.1699C51.0256 16.1832 49.4358 17.1849 47.835 18.1938C47.968 18.4296 48.0947 18.6545 48.2381 18.9098C49.8445 17.9371 51.4544 16.9621 53.0947 15.9691L53.094 15.9684Z" fill="#DEDEDE"></path><path d="M51.054 13.2578C49.7441 14.7036 48.4702 16.1103 47.2122 17.4989C47.3792 17.6877 47.5329 17.8613 47.7047 18.0551C49.0153 16.6592 50.3162 15.2742 51.6178 13.8878C51.4294 13.6773 51.25 13.4762 51.054 13.2578Z" fill="#DEDEDE"></path><path d="M46.4253 17.0483C46.595 17.143 46.7453 17.2269 46.9199 17.3238C47.8474 15.6372 48.7715 13.9571 49.708 12.2539C49.5072 12.1374 49.3208 12.0297 49.1075 11.9053C48.2111 13.6237 47.3237 15.3262 46.426 17.0475L46.4253 17.0483Z" fill="#DEDEDE"></path><path d="M47.4886 11.2552C47.2725 11.2024 47.0841 11.1568 46.8749 11.1055C46.4412 13.009 46.0125 14.8909 45.5802 16.7902C45.7561 16.8357 45.9189 16.8777 46.1032 16.9254C46.5645 15.0385 47.0217 13.1645 47.4886 11.2545V11.2552Z" fill="#DEDEDE"></path></svg>